<svg xmlns="http://www.w3.org/2000/svg" viewBox="0 0 68.27 12.98"><defs><style>.cls-1{fill:#ff9500;}</style></defs><title>app_store_5_star_review</title><g id="Layer_2" data-name="Layer 2"><g id="Layer_1-2" data-name="Layer 1"><path class="cls-1" d="M6.49,0l-2,5.08H0L3.74,7.83,2.26,13,6.49,9.59,10.72,13,9.24,7.83,13,5.08H8.46Z"/><path class="cls-1" d="M20.31,0l-2,5.08H13.82l3.74,2.75L16.08,13l4.23-3.39L24.54,13,23.06,7.83,26.8,5.08H22.29Z"/><path class="cls-1" d="M34.13,0l-2,5.08H27.65l3.73,2.75L29.9,13l4.23-3.39L38.37,13,36.88,7.83l3.74-2.75H36.11Z"/><path class="cls-1" d="M48,0,46,5.08H41.47l3.74,2.75L43.73,13,48,9.59,52.19,13,50.71,7.83l3.74-2.75H49.93Z"/><path class="cls-1" d="M61.78,0l-2,5.08H55.29L59,7.83,57.55,13l4.23-3.39L66,13,64.53,7.83l3.74-2.75H63.76Z"/></g></g></svg>