<svg xmlns="http://www.w3.org/2000/svg" viewBox="0 0 511.48 167.31"><defs><style>.cls-1{fill:#231f20;}.cls-2{fill:#fff;}</style></defs><title>App_Store</title><g id="Layer_2" data-name="Layer 2"><g id="Layer_1-2" data-name="Layer 1"><path class="cls-1" d="M511.48,144.7a22.61,22.61,0,0,1-22.61,22.61H22.61A22.61,22.61,0,0,1,0,144.7V22.61A22.61,22.61,0,0,1,22.61,0H488.87a22.61,22.61,0,0,1,22.61,22.61Z"/><path class="cls-2" d="M88.34,28.61H46.67a9,9,0,0,0-9,9V130a9,9,0,0,0,9,9H88.34a9,9,0,0,0,9-9V37.65A9,9,0,0,0,88.34,28.61ZM67.51,132.36a6,6,0,1,1,6-6A6,6,0,0,1,67.51,132.36Zm22.77-15H44.73V49.3H90.28Z"/><path class="cls-2" d="M131.5,45.06,129,52.73h-3.25L134,28.35h3.8l8.32,24.38h-3.37l-2.6-7.67Zm8-2.45-2.42-7c-.51-1.6-.87-3-1.24-4.45h-.1c-.33,1.41-.73,2.93-1.2,4.41l-2.38,7.06Z"/><path class="cls-2" d="M149.38,35.22,152.81,45c.58,1.63,1.05,3.07,1.42,4.52h.1c.4-1.45.91-2.89,1.49-4.52l3.4-9.81h3.33l-6.88,17.51h-3L146,35.22Z"/><path class="cls-2" d="M177.2,48.54a29.4,29.4,0,0,0,.25,4.19H174.6l-.3-2.2h-.1a6.48,6.48,0,0,1-5.36,2.6,5,5,0,0,1-5.35-5c0-4.23,3.76-6.55,10.53-6.51v-.36c0-1.45-.4-4.09-4-4a8.46,8.46,0,0,0-4.6,1.3l-.72-2.14a11.39,11.39,0,0,1,5.79-1.51c5.39,0,6.69,3.65,6.69,7.16Zm-3.11-4.74c-3.48-.07-7.42.54-7.42,3.94a2.79,2.79,0,0,0,3,3,4.42,4.42,0,0,0,4.3-2.93,3.26,3.26,0,0,0,.15-1Z"/><path class="cls-2" d="M183.64,32a2,2,0,1,1,2.1-2.06A2,2,0,0,1,183.68,32Zm-1.52,20.73V35.22h3.18V52.73Z"/><path class="cls-2" d="M190.4,27.05h3.19V52.73H190.4Z"/><path class="cls-2" d="M211,48.54a29.3,29.3,0,0,0,.26,4.19h-2.86l-.29-2.2H208a6.48,6.48,0,0,1-5.36,2.6,5,5,0,0,1-5.35-5c0-4.23,3.76-6.55,10.53-6.51v-.36c0-1.45-.4-4.09-4-4a8.42,8.42,0,0,0-4.59,1.3l-.73-2.14a11.41,11.41,0,0,1,5.79-1.51c5.39,0,6.69,3.65,6.69,7.16Zm-3.11-4.74c-3.47-.07-7.42.54-7.42,3.94a2.79,2.79,0,0,0,3,3,4.43,4.43,0,0,0,4.31-2.93,3.24,3.24,0,0,0,.14-1Z"/><path class="cls-2" d="M215.94,27.05h3.18V38h.08a6.49,6.49,0,0,1,6-3.18c4.34,0,7.38,3.61,7.38,8.9,0,6.29-4,9.4-7.89,9.4a6.28,6.28,0,0,1-5.86-3.29h-.07l-.19,2.89H215.8c.11-1.19.14-3,.14-4.52Zm3.18,18.67a5.4,5.4,0,0,0,.12,1.15A4.93,4.93,0,0,0,224,50.6c3.37,0,5.32-2.71,5.32-6.73,0-3.55-1.81-6.55-5.21-6.55a5,5,0,0,0-4.81,3.91,4.92,4.92,0,0,0-.19,1.34Z"/><path class="cls-2" d="M236.34,27.05h3.19V52.73h-3.19Z"/><path class="cls-2" d="M246.44,44.52c.07,4.31,2.78,6.08,6,6.08a12.09,12.09,0,0,0,4.85-.87l.57,2.24A14.15,14.15,0,0,1,252,53.1c-5.35,0-8.61-3.59-8.61-8.83s3.15-9.48,8.25-9.48c5.71,0,7.2,5,7.2,8.25a8.38,8.38,0,0,1-.11,1.52Zm9.29-2.28c0-2-.83-5.17-4.38-5.17-3.25,0-4.62,3-4.88,5.17Z"/><path class="cls-2" d="M277.19,53.13c-4.71,0-8.4-3.47-8.4-9,0-5.86,3.88-9.29,8.69-9.29,5,0,8.42,3.65,8.42,9,0,6.51-4.52,9.33-8.68,9.33Zm.1-2.38c3,0,5.32-2.86,5.32-6.84,0-3-1.48-6.7-5.24-6.7S272,40.69,272,44c0,3.84,2.17,6.74,5.25,6.74Z"/><path class="cls-2" d="M289.74,40c0-1.84,0-3.29-.15-4.74h2.83l.18,2.86h.07a6.49,6.49,0,0,1,5.78-3.25c2.43,0,6.2,1.44,6.2,7.45V52.73h-3.19V42.64c0-2.82-1-5.21-4-5.21a4.58,4.58,0,0,0-4.27,3.26,4.52,4.52,0,0,0-.22,1.48V52.73h-3.18Z"/><path class="cls-2" d="M321,31v4.19h4.55v2.43H321v9.44c0,2.17.61,3.4,2.38,3.4a5.8,5.8,0,0,0,1.85-.22l.14,2.43a8.84,8.84,0,0,1-2.81.43,4.6,4.6,0,0,1-3.45-1.33c-.86-1-1.22-2.54-1.22-4.6V37.65h-2.72V35.22h2.72V32Z"/><path class="cls-2" d="M328.92,27.05h3.18V38h.07a5.72,5.72,0,0,1,2.28-2.24,6.18,6.18,0,0,1,3.26-.9c2.35,0,6.11,1.44,6.11,7.49V52.73h-3.18v-10c0-2.86-1.05-5.22-4.06-5.22a4.6,4.6,0,0,0-4.26,3.19,3.84,3.84,0,0,0-.22,1.52V52.73h-3.18Z"/><path class="cls-2" d="M350.62,44.52c.07,4.31,2.79,6.08,6,6.08a12.09,12.09,0,0,0,4.85-.87L362,52a14.25,14.25,0,0,1-5.87,1.13c-5.35,0-8.61-3.59-8.61-8.83s3.15-9.48,8.25-9.48c5.72,0,7.21,5,7.21,8.25a8.38,8.38,0,0,1-.11,1.52Zm9.3-2.28c0-2-.83-5.17-4.38-5.17-3.25,0-4.63,3-4.88,5.17Z"/><path class="cls-2" d="M375.77,32a2,2,0,0,1,.07-4.08,2,2,0,0,1,2,2A2,2,0,0,1,375.79,32Zm-1.53,20.73V35.22h3.19V52.73Z"/><path class="cls-2" d="M382.63,28.67a33.4,33.4,0,0,1,6.05-.5c3.11,0,5.39.72,6.83,2a6.57,6.57,0,0,1,2.18,5.1,7.05,7.05,0,0,1-1.92,5.2c-1.67,1.78-4.38,2.68-7.46,2.68a11.55,11.55,0,0,1-2.53-.21v9.76h-3.15Zm3.15,11.73a10.89,10.89,0,0,0,2.61.25c3.83,0,6.11-1.88,6.11-5.17s-2.28-4.81-5.75-4.81a16,16,0,0,0-3,.25Z"/><path class="cls-2" d="M401.41,27.05h3.19V38h.07A5.72,5.72,0,0,1,407,35.73a6.17,6.17,0,0,1,3.25-.9c2.36,0,6.12,1.44,6.12,7.49V52.73h-3.18v-10c0-2.86-1.05-5.22-4.06-5.22a4.62,4.62,0,0,0-4.27,3.19,3.86,3.86,0,0,0-.21,1.52V52.73h-3.19Z"/><path class="cls-2" d="M428.44,53.13c-4.71,0-8.4-3.47-8.4-9,0-5.86,3.88-9.29,8.69-9.29,5,0,8.42,3.65,8.42,9,0,6.51-4.52,9.33-8.68,9.33Zm.11-2.38c3,0,5.31-2.86,5.31-6.84,0-3-1.48-6.7-5.24-6.7s-5.36,3.48-5.36,6.8c0,3.84,2.17,6.74,5.25,6.74Z"/><path class="cls-2" d="M441,40c0-1.84,0-3.29-.14-4.74h2.82l.18,2.86h.07a6.51,6.51,0,0,1,5.79-3.25c2.42,0,6.18,1.44,6.18,7.45V52.73h-3.18V42.64c0-2.82-1-5.21-4-5.21a4.59,4.59,0,0,0-4.27,3.26,4.8,4.8,0,0,0-.22,1.48V52.73H441Z"/><path class="cls-2" d="M462.69,44.52c.08,4.31,2.79,6.08,6,6.08a12.07,12.07,0,0,0,4.84-.87l.58,2.24a14.15,14.15,0,0,1-5.86,1.13c-5.35,0-8.61-3.59-8.61-8.83s3.15-9.48,8.25-9.48c5.71,0,7.2,5,7.2,8.25a8.38,8.38,0,0,1-.11,1.52Zm9.3-2.28c0-2-.83-5.17-4.38-5.17-3.25,0-4.63,3-4.88,5.17Z"/><path class="cls-2" d="M146.49,69.25,125,132.39h9.83l6.4-19.38H162l6.58,19.38h10.1L157.18,69.25Zm5.09,10.38c.73,2.82,1.51,5.75,2.51,8.91l5.78,16.74H143.42l5.7-16.85C150,85.7,150.81,82.75,151.58,79.63Z"/><path class="cls-2" d="M206.48,85.62c-6.51,0-11.72,2.51-15.19,7.29l-.38-6.29h-8.74l.05.81c.26,3.91.37,8.22.37,14.4V150.5h9.55V127.79a16.8,16.8,0,0,0,13.06,5.61,19.69,19.69,0,0,0,14.48-6.16c4.18-4.42,6.39-10.78,6.39-18.37,0-6.71-1.92-12.52-5.55-16.78A18.18,18.18,0,0,0,206.48,85.62Zm-2.38,7.91c8.51,0,12.33,7.89,12.33,15.7,0,10.09-4.87,16.35-12.69,16.35a11.58,11.58,0,0,1-11.26-8.86,12.31,12.31,0,0,1-.34-3.1v-7.68a14.32,14.32,0,0,1,.31-2.36c0-.26.09-.52.13-.77A12.1,12.1,0,0,1,204.1,93.53Z"/><path class="cls-2" d="M255.67,85.62c-6.5,0-11.71,2.51-15.19,7.29l-.38-6.29h-8.73l0,.81c.26,3.91.36,8.22.36,14.4V150.5h9.56V127.79a16.77,16.77,0,0,0,13,5.61,19.73,19.73,0,0,0,14.49-6.16c4.18-4.42,6.39-10.78,6.39-18.37,0-6.71-1.92-12.52-5.56-16.78A18.17,18.17,0,0,0,255.67,85.62Zm-2.37,7.91c8.51,0,12.32,7.89,12.32,15.7,0,10.09-4.86,16.35-12.69,16.35a11.57,11.57,0,0,1-11.25-8.86,12.31,12.31,0,0,1-.34-3.1v-7.68a14,14,0,0,1,.3-2.36c.05-.26.1-.52.14-.77A12.09,12.09,0,0,1,253.3,93.53Z"/><path class="cls-2" d="M317.3,96c-8.91-3.46-11.77-6.17-11.77-11.19,0-4.22,3.36-8.48,10.86-8.48a21.71,21.71,0,0,1,11.21,2.81l.82.5,2.69-8-.53-.31c-1.6-.94-6.16-3.13-13.91-3.13-12.19,0-20.7,7.2-20.7,17.49C296,94,301.3,99.84,312.74,104c8.11,3,11.13,6.13,11.13,11.45,0,6-4.66,9.76-12.15,9.76a26.2,26.2,0,0,1-13.77-3.9l-.82-.53-2.57,8.16.47.31c3.61,2.41,10.4,4.15,16.15,4.15,16.42,0,22.24-10,22.24-18.59C333.42,106,328.75,100.52,317.3,96Z"/><path class="cls-2" d="M350.62,75.75l-9.37,2.94v7.93h-6.86v7.64h6.86v23.39c0,5.65,1.08,9.62,3.3,12.12a12.27,12.27,0,0,0,9.25,3.63,22.39,22.39,0,0,0,7.38-1.14l.54-.19-.46-7.65-.92.28a14.41,14.41,0,0,1-4.44.51c-3.7,0-5.28-2.34-5.28-7.84V94.26h11.52V86.62H350.62Z"/><path class="cls-2" d="M385.82,85.62c-13.37,0-22.71,10-22.71,24.26,0,13.85,9,23.52,22,23.52h.09c10.94,0,22.7-7.62,22.7-24.35,0-6.8-2.1-12.64-6.08-16.9A21.27,21.27,0,0,0,385.82,85.62Zm-.28,7.54c8.6,0,12.51,8.38,12.51,16.17,0,9.58-5.34,16.53-12.69,16.53h-.09c-7.25,0-12.51-6.84-12.51-16.26C372.76,101.42,376.71,93.16,385.54,93.16Z"/><path class="cls-2" d="M437.14,86.06l-.58-.14a9.17,9.17,0,0,0-2.37-.3,13.62,13.62,0,0,0-12,7.69l-.28-6.69h-8.58l.06.81c.25,3.78.36,8,.36,13.76l-.09,31.2h9.56V108.05a25.12,25.12,0,0,1,.26-3.71c1.08-5.85,5-9.63,10.05-9.63a24,24,0,0,1,2.56.17l1,.1Z"/><path class="cls-2" d="M458.62,85.53C445.9,85.53,437,95.69,437,110.24c0,14,8.84,23.07,22.52,23.07a36.74,36.74,0,0,0,15.13-2.9l.57-.26L473.4,123l-.8.32a29.63,29.63,0,0,1-12,2.14c-4.15,0-13.72-1.37-14.31-13.85l30.84.09.12-.61a21.58,21.58,0,0,0,.29-4C477.57,97.17,472.6,85.53,458.62,85.53ZM458,92.8a9.43,9.43,0,0,1,7,2.67c2.75,2.8,3.23,6.92,3.29,8.9H446.5C447.38,98.85,450.83,92.8,458,92.8Z"/></g></g></svg>