<svg xmlns="http://www.w3.org/2000/svg" xmlns:xlink="http://www.w3.org/1999/xlink" viewBox="0 0 511.48 167.31"><defs><style>.cls-1{fill:none;}.cls-2{fill:#231f20;}.cls-3{clip-path:url(#clip-path);}.cls-4{fill:url(#linear-gradient);}.cls-5{fill:url(#linear-gradient-2);}.cls-6{fill:url(#linear-gradient-3);}.cls-7{fill:url(#linear-gradient-4);}.cls-8{fill:#f9f9f9;}.cls-9{fill:#f9f9fa;}</style><clipPath id="clip-path"><path class="cls-1" d="M110.84,73.65,87.78,60.33,43.3,34.64c-2.47-1.42-4.94-.56-4.94,2.42V141.71c0,2.24,1.76,3.2,3.91,2l45.51-26.28,23.06-13.31L133,91.28c2.6-1.5,2.35-3.56.16-4.74S110.84,73.65,110.84,73.65Z"/></clipPath><linearGradient id="linear-gradient" x1="66.93" y1="32.21" x2="66.93" y2="145.51" gradientUnits="userSpaceOnUse"><stop offset="0" stop-color="#257cb0"/><stop offset="0.21" stop-color="#3c8fb3"/><stop offset="0.74" stop-color="#73bdba"/><stop offset="1" stop-color="#89cfbd"/></linearGradient><linearGradient id="linear-gradient-2" x1="38.36" y1="60.33" x2="110.84" y2="60.33" gradientUnits="userSpaceOnUse"><stop offset="0" stop-color="#52c1ad"/><stop offset="1" stop-color="#dee89a"/></linearGradient><linearGradient id="linear-gradient-3" x1="74.6" y1="88.86" x2="74.6" y2="145.93" gradientUnits="userSpaceOnUse"><stop offset="0" stop-color="#ec413d"/><stop offset="0.19" stop-color="#d74352"/><stop offset="0.74" stop-color="#a04888"/><stop offset="1" stop-color="#8a4a9d"/></linearGradient><linearGradient id="linear-gradient-4" x1="116.35" y1="73.65" x2="116.35" y2="104.08" gradientUnits="userSpaceOnUse"><stop offset="0" stop-color="#f58879"/><stop offset="0.62" stop-color="#fbb276"/><stop offset="1" stop-color="#fec874"/></linearGradient></defs><title>Google_Play</title><g id="Layer_2" data-name="Layer 2"><g id="Layer_1-2" data-name="Layer 1"><path class="cls-2" d="M511.48,144.7a22.61,22.61,0,0,1-22.61,22.61H22.61A22.61,22.61,0,0,1,0,144.7V22.61A22.61,22.61,0,0,1,22.61,0H488.87a22.61,22.61,0,0,1,22.61,22.61Z"/><g id="PLAY"><g class="cls-3"><polygon class="cls-4" points="38.37 32.21 38.37 88.86 38.37 145.51 95.5 88.86 38.37 32.21"/><polygon class="cls-5" points="110.84 73.65 87.78 60.33 38.37 31.8 38.37 32.21 95.5 88.86 110.84 73.65"/><polygon class="cls-6" points="38.37 145.51 38.37 145.93 87.78 117.39 110.84 104.08 95.5 88.86 38.37 145.51"/><polygon class="cls-7" points="110.84 73.65 95.5 88.86 110.84 104.08 137.2 88.86 110.84 73.65"/></g></g><path class="cls-8" d="M398.06,111a14.11,14.11,0,0,1-5.88-1.19,11.06,11.06,0,0,1-4.46-3.65h-.37a42.59,42.59,0,0,1,.37,5.47V125.2h-5V77.46h4l.7,4.51h.24a11.47,11.47,0,0,1,4.48-3.91,13.6,13.6,0,0,1,5.86-1.2q6.56,0,10.12,4.48t3.56,12.56q0,8.13-3.62,12.62A12.23,12.23,0,0,1,398.06,111Zm-.72-29.91q-5.05,0-7.31,2.79c-1.5,1.87-2.27,4.83-2.31,8.9V93.9q0,7,2.31,9.94c1.55,2,4,3,7.43,3a7.74,7.74,0,0,0,6.69-3.45q2.42-3.47,2.42-9.54c0-4.1-.81-7.26-2.42-9.45A8,8,0,0,0,397.34,81.1Z"/><path class="cls-8" d="M423.29,110.41h-5V63.63h5Z"/><path class="cls-8" d="M452,110.41l-1-4.69h-.24a13.76,13.76,0,0,1-4.91,4.19,14.89,14.89,0,0,1-6.12,1.1q-4.91,0-7.68-2.52c-1.86-1.69-2.78-4.08-2.78-7.19q0-10,16-10.46l5.59-.18v-2c0-2.58-.55-4.49-1.67-5.72S446.25,81,443.81,81a21.74,21.74,0,0,0-9.32,2.52L433,79.74a23.71,23.71,0,0,1,5.34-2.07,23.18,23.18,0,0,1,5.82-.75q5.89,0,8.73,2.61c1.9,1.75,2.84,4.54,2.84,8.39v22.49Zm-11.28-3.52a10.13,10.13,0,0,0,7.32-2.55,9.45,9.45,0,0,0,2.66-7.16v-3l-5,.2c-4,.15-6.83.76-8.58,1.86a5.56,5.56,0,0,0-2.63,5.09,5.12,5.12,0,0,0,1.64,4.12A6.8,6.8,0,0,0,440.71,106.89Z"/><path class="cls-8" d="M458.58,77.46h5.35l7.22,18.79a71.82,71.82,0,0,1,2.94,9.29h.24c.27-1,.81-2.77,1.64-5.25s3.56-10.08,8.16-22.83h5.36L475.33,115q-2.11,5.56-4.92,7.89a10.42,10.42,0,0,1-6.9,2.33,20.12,20.12,0,0,1-4.51-.51v-4a17.46,17.46,0,0,0,3.7.36q5.15,0,7.33-5.77l1.84-4.69Z"/><path class="cls-8" d="M305.61,80.52a11.64,11.64,0,0,1,4.89,9.31c0,5.09-2.89,7.51-5.79,9.78-.9.9-1.93,1.86-1.93,3.38a3.78,3.78,0,0,0,1.79,3l2.49,1.93c3,2.55,5.78,4.9,5.78,9.65,0,6.48-6.27,13-18.12,13-10,0-14.82-4.76-14.82-9.86,0-2.48,1.24-6,5.31-8.41,4.27-2.62,10.06-3,13.16-3.17-1-1.24-2.07-2.55-2.07-4.68a6.26,6.26,0,0,1,.69-2.69c-.76.07-1.51.13-2.21.13-7.3,0-11.43-5.44-11.43-10.81a12.41,12.41,0,0,1,4.41-9.24c3.93-3.24,8.61-3.79,12.34-3.79h14.19l-4.41,2.48Zm-4.9,30.6a10.92,10.92,0,0,0-1.58-.07,27.47,27.47,0,0,0-7.24,1.11c-1.51.55-5.92,2.2-5.92,7.1s4.75,8.41,12.13,8.41c6.61,0,10.13-3.18,10.13-7.45C308.23,116.7,306,114.85,300.71,111.12Zm2-13.09a7,7,0,0,0,1.72-5c0-5-3-12.68-8.68-12.68a6.43,6.43,0,0,0-4.82,2.28,8,8,0,0,0-1.52,5.1c0,4.62,2.69,12.27,8.62,12.27A7,7,0,0,0,302.71,98Z"/><path class="cls-8" d="M262.22,110a16.24,16.24,0,0,1-16.79-16.24c0-9,7.36-16.72,17.83-16.72A16.09,16.09,0,0,1,279.7,93.3C279.7,101.42,273.44,110,262.22,110Zm8.6-5.57a12.5,12.5,0,0,0,2.07-7.64c0-6.06-2.89-17.62-11.43-17.62a9.57,9.57,0,0,0-6.19,2.35c-2.68,2.4-3.17,5.43-3.17,8.39,0,6.81,3.38,18,11.71,18A8.78,8.78,0,0,0,270.82,104.45Z"/><path class="cls-8" d="M224.93,110c-11,0-16.8-8.53-16.8-16.24,0-9,7.37-16.72,17.83-16.72A16.09,16.09,0,0,1,242.4,93.3C242.4,101.42,236.14,110,224.93,110Zm8.6-5.57a12.49,12.49,0,0,0,2.06-7.64c0-6.06-2.89-17.62-11.42-17.62A9.57,9.57,0,0,0,218,81.54c-2.69,2.4-3.17,5.43-3.17,8.39,0,6.81,3.37,18,11.7,18A8.81,8.81,0,0,0,233.53,104.45Z"/><path class="cls-8" d="M202.88,108.94l-9.9,2.28a72.58,72.58,0,0,1-11.41,1.18c-19.09,0-26.36-14.05-26.36-25.05,0-13.42,10.31-25.86,27.95-25.86a39.9,39.9,0,0,1,10.59,1.45,27,27,0,0,1,9.13,4.29l-5.75,5.46-2.42.55,1.73-2.77c-2.35-2.28-6.64-6.5-14.8-6.5-10.93,0-19.16,8.31-19.16,20.41,0,13,9.41,25.25,24.48,25.25a20.63,20.63,0,0,0,8.79-1.73V96.77l-10.44.55,5.53-3h14.67l-1.8,1.73a1.59,1.59,0,0,0-.69,1.1c-.08.63-.14,2.64-.14,3.33Z"/><path class="cls-8" d="M327.47,107c-2.28-.21-2.76-.62-2.76-3.32V64.47c0-.15,0-.3,0-.44.28-2.42,1-2.84,3.12-4.09H318l-5.19,2.5h5.29v42.71c0,1.38-.27,1.59-1.86,3.66h12.24L331,107.3C329.83,107.15,328.65,107.09,327.47,107Z"/><path class="cls-8" d="M355.62,107.59c-.75.41-1.51.89-2.26,1.23a16,16,0,0,1-6.67,1.31,14.69,14.69,0,0,1-9.14-2.68c-4.87-3.44-7-9.35-7-14.5,0-10.65,8.66-15.87,15.73-15.87A13.32,13.32,0,0,1,353.36,79a11.32,11.32,0,0,1,4.8,6.79L342,92.33l-5.29.42c1.72,8.72,7.63,13.8,14.16,13.8a17.73,17.73,0,0,0,8.38-2.4Zm-6.45-20.48c1.3-.48,2-.89,2-1.85,0-2.75-3.09-5.91-6.8-5.91-2.76,0-7.9,2.13-7.9,9.55,0,1.16.13,2.4.2,3.64Z"/><path class="cls-8" d="M362.26,77.55v4.54h-.56V77.55h-1.5v-.47h3.55v.47Z"/><path class="cls-8" d="M368.44,82.09V77.51h0L367,82.09h-.43l-1.41-4.58h0v4.58h-.5v-5h.85l1.28,4h0l1.25-4h.87v5Z"/><path class="cls-9" d="M169,48h-3.43a22.93,22.93,0,0,0-1-4h-5a20.34,20.34,0,0,0-1,4h-3.24c0-.27.84-2.57,2.51-6.87A54.65,54.65,0,0,0,160.35,34h4.06a60.25,60.25,0,0,0,2.27,7A60.24,60.24,0,0,1,169,48ZM164,42c-1.22-3.7-1.84-5.7-1.84-6H162a62.1,62.1,0,0,1-1.9,6Z"/><path class="cls-9" d="M182.81,48h-2.66q0-.43-3-4.65c-2.06-3-3.24-5-3.53-6.07h-.17a37.72,37.72,0,0,1,.27,4.26q0,2.66.15,6.46h-2.64c.11-2.22.16-4.65.16-7.31s-.05-4.84-.16-6.67h3.19q0,.57,2.65,4.54a26.54,26.54,0,0,1,3.25,5.73h.16a41.19,41.19,0,0,1-.26-4.3q0-2.91-.15-6h2.69c-.1,1.77-.15,4-.15,6.67S182.71,45.83,182.81,48Z"/><path class="cls-9" d="M198.38,40.54a8,8,0,0,1-2,5.33,6.85,6.85,0,0,1-5.48,2.27c-1.06,0-2.52,0-4.38-.13q.13-3.24.14-7.31,0-3.91-.14-6.67h1.88l1.37,0,1.2,0c2.58,0,4.46.65,5.62,1.94A6.7,6.7,0,0,1,198.38,40.54Zm-2.94.46a5.2,5.2,0,0,0-1.2-3.48,4.56,4.56,0,0,0-3.67-1.41,10.27,10.27,0,0,0-1.27.1c.07,1.43.11,2.93.11,4.49s0,3.41.1,5.09a7.39,7.39,0,0,0,1.4.14,4.07,4.07,0,0,0,3.42-1.43A5.55,5.55,0,0,0,195.44,41Z"/><path class="cls-9" d="M212.73,48h-3.18a21.48,21.48,0,0,0-1.91-4.69,2.51,2.51,0,0,0-2.15-.89H204.3c0,1.84,0,3.7.1,5.57h-3q.14-3.24.14-7.31,0-3.91-.14-6.67h1.86l1.35,0c.68,0,1.31,0,1.89,0q4.94,0,4.93,3.38a3.78,3.78,0,0,1-2.81,3.72v.17a3.33,3.33,0,0,1,1.9,1.69A36.82,36.82,0,0,1,212.73,48Zm-4-9.88c0-1.42-.91-2.14-2.75-2.14a9.46,9.46,0,0,0-1.78.15c.08,1.11.12,2.56.12,4.34l1,0C207.56,40.51,208.7,39.71,208.7,38.13Z"/><path class="cls-9" d="M228.13,40.76a7.69,7.69,0,0,1-2,5.47,6.54,6.54,0,0,1-5,2.17,6.3,6.3,0,0,1-4.75-2,7,7,0,0,1-1.91-5.07,7.68,7.68,0,0,1,2-5.46,6.52,6.52,0,0,1,5-2.17,6.35,6.35,0,0,1,4.75,2A7,7,0,0,1,228.13,40.76Zm-3,.32A5.6,5.6,0,0,0,224,37.43,3.55,3.55,0,0,0,221.18,36a3.28,3.28,0,0,0-2.66,1.4,5.64,5.64,0,0,0-1.1,3.56,5.55,5.55,0,0,0,1.16,3.64,3.53,3.53,0,0,0,2.83,1.4,3.26,3.26,0,0,0,2.66-1.42A5.6,5.6,0,0,0,225.17,41.08Z"/><path class="cls-9" d="M234.2,48h-3c.1-2.22.14-4.65.14-7.31s0-4.84-.14-6.67h3c-.09,1.8-.14,4-.14,6.67S234.11,45.84,234.2,48Z"/><path class="cls-9" d="M249.77,40.54a8,8,0,0,1-2,5.33,6.85,6.85,0,0,1-5.48,2.27c-1.06,0-2.52,0-4.38-.13q.14-3.24.14-7.31,0-3.91-.14-6.67h1.88l1.37,0,1.2,0q3.87,0,5.62,1.94A6.69,6.69,0,0,1,249.77,40.54Zm-2.93.46a5.2,5.2,0,0,0-1.2-3.48A4.57,4.57,0,0,0,242,36.11a10.13,10.13,0,0,0-1.26.1c.07,1.43.1,2.93.1,4.49s0,3.41.11,5.09a7.39,7.39,0,0,0,1.4.14,4.07,4.07,0,0,0,3.42-1.43A5.55,5.55,0,0,0,246.84,41Z"/><path class="cls-9" d="M270.43,48H267a22,22,0,0,0-1-4h-5a21.16,21.16,0,0,0-1,4h-3.23c0-.27.83-2.57,2.51-6.87a53.62,53.62,0,0,0,2.5-7.11h4.07a58,58,0,0,0,2.27,7A62.7,62.7,0,0,1,270.43,48Zm-5-6.06a59.7,59.7,0,0,1-1.84-6h-.17c0,.28-.64,2.28-1.9,6Z"/><path class="cls-9" d="M283,37.69a4.18,4.18,0,0,1-1.91,3.79,8.44,8.44,0,0,1-4.67,1.23l-.72,0c0,1.34,0,3.12.11,5.32h-3q.14-3.09.13-7.31,0-3.87-.13-6.67h1.86l1.53,0c.75,0,1.4,0,2,0a6.11,6.11,0,0,1,3.45.93A3.11,3.11,0,0,1,283,37.69Zm-2.77.59c0-1.53-1-2.3-3.05-2.3a9.24,9.24,0,0,0-1.61.16c.08,1.36.11,2.89.11,4.6a6,6,0,0,0,.63,0C278.88,40.76,280.19,39.94,280.19,38.28Z"/><path class="cls-9" d="M295.84,37.69a4.18,4.18,0,0,1-1.9,3.79,8.45,8.45,0,0,1-4.68,1.23l-.72,0c0,1.34,0,3.12.12,5.32h-3q.14-3.09.14-7.31,0-3.87-.14-6.67h1.87L289,34c.76,0,1.41,0,2,0a6.13,6.13,0,0,1,3.45.93A3.11,3.11,0,0,1,295.84,37.69Zm-2.77.59c0-1.53-1-2.3-3.05-2.3a9.33,9.33,0,0,0-1.61.16c.08,1.36.12,2.89.12,4.6a5.92,5.92,0,0,0,.62,0C291.77,40.76,293.07,39.94,293.07,38.28Z"/><path class="cls-9" d="M316.91,40.76a7.69,7.69,0,0,1-2,5.47,6.55,6.55,0,0,1-5,2.17,6.28,6.28,0,0,1-4.74-2,7,7,0,0,1-1.92-5.07,7.73,7.73,0,0,1,2-5.46,6.56,6.56,0,0,1,5-2.17,6.35,6.35,0,0,1,4.75,2A7,7,0,0,1,316.91,40.76Zm-3,.32a5.54,5.54,0,0,0-1.15-3.65A3.52,3.52,0,0,0,310,36a3.29,3.29,0,0,0-2.67,1.4A5.64,5.64,0,0,0,306.2,41a5.55,5.55,0,0,0,1.15,3.64,3.56,3.56,0,0,0,2.83,1.4,3.26,3.26,0,0,0,2.67-1.42A5.6,5.6,0,0,0,313.94,41.08Z"/><path class="cls-9" d="M331.47,48h-2.65q0-.43-3-4.65c-2.06-3-3.24-5-3.52-6.07h-.17a37.72,37.72,0,0,1,.27,4.26c0,1.77,0,3.92.15,6.46h-2.65c.11-2.22.16-4.65.16-7.31s-.05-4.84-.16-6.67h3.19q0,.57,2.66,4.54A26.8,26.8,0,0,1,329,44.3h.16a41.19,41.19,0,0,1-.26-4.3q0-2.91-.15-6h2.69c-.1,1.77-.15,4-.15,6.67S331.37,45.83,331.47,48Z"/></g></g></svg>